<svg viewBox="0 0 31.4512 32" xmlns="http://www.w3.org/2000/svg" xmlns:xlink="http://www.w3.org/1999/xlink" width="31.451172" height="32.000000" fill="none" customFrame="#000000">
	<defs>
		<clipPath id="clipPath_1">
			<rect width="15.892374" height="16.000000" x="7.947266" y="8.000000" fill="rgb(255,255,255)" />
		</clipPath>
	</defs>
	<g id="2">
		<path id="Rectangle 14" d="M31.4506 0L0 0L0 32L31.4506 32L31.4506 0Z" fill="rgb(255,255,255)" fill-rule="evenodd" />
		<g id="twitter-brands 1" clip-path="url(#clipPath_1)" customFrame="url(#clipPath_1)">
			<rect id="twitter-brands 1" width="15.892374" height="16.000000" x="7.947266" y="8.000000" fill="rgb(255,255,255)" fill-opacity="0" />
			<path id="Vector" d="M22.206 12.7405C22.2161 12.8826 22.2161 13.0248 22.2161 13.1669C22.2161 17.5019 18.9388 22.4969 12.9489 22.4969C11.1035 22.4969 9.38928 21.9588 7.94727 21.0248C8.20946 21.0552 8.46153 21.0654 8.73381 21.0654C10.2565 21.0654 11.6582 20.5476 12.7775 19.6644C11.3456 19.6339 10.1456 18.6898 9.73212 17.3903C9.93381 17.4207 10.1355 17.441 10.3473 17.441C10.6397 17.441 10.9321 17.4004 11.2044 17.3294C9.71197 17.0248 8.59261 15.705 8.59261 14.1111L8.59261 14.0705C9.02621 14.3141 9.53045 14.4664 10.0649 14.4867C9.18755 13.8979 8.61279 12.8928 8.61279 11.7557C8.61279 11.1466 8.7741 10.5882 9.05647 10.1009C10.6598 12.0908 13.0699 13.3902 15.7724 13.5324C15.722 13.2887 15.6917 13.035 15.6917 12.7811C15.6917 10.974 17.1438 9.50195 18.9489 9.50195C19.8867 9.50195 20.7337 9.89789 21.3287 10.5375C22.0648 10.3954 22.7707 10.1212 23.3959 9.74561C23.1538 10.507 22.6396 11.1466 21.964 11.5527C22.6194 11.4817 23.2547 11.2989 23.8396 11.0451C23.396 11.6948 22.8413 12.2735 22.206 12.7405Z" fill="rgb(0,0,0)" fill-rule="nonzero" />
		</g>
	</g>
</svg>
