<svg viewBox="0 0 25.9883 23.9727" xmlns="http://www.w3.org/2000/svg" xmlns:xlink="http://www.w3.org/1999/xlink" width="25.988281" height="23.972656" fill="none" customFrame="#000000">
	<path id="Vector" d="M21.3154 21.9733C21.3605 21.9619 21.3818 21.9409 21.3995 21.9199C21.4072 21.9108 21.415 21.9016 21.4229 21.8926C21.4594 21.8508 21.4627 21.7623 21.4619 21.7175C21.4487 21.6115 21.3579 21.5386 21.2806 21.5386C21.2769 21.5386 21.2731 21.5387 21.2707 21.5388C21.1926 21.5442 21.1048 21.6479 21.1114 21.7695C21.1207 21.8864 21.2069 21.9733 21.2787 21.9733L21.3154 21.9733ZM7.659 21.9669C7.75818 21.9669 7.83881 21.8726 7.83881 21.7566C7.83881 21.6411 7.75818 21.5471 7.659 21.5471C7.55988 21.5471 7.47919 21.6411 7.47919 21.7566C7.47919 21.8726 7.55988 21.9669 7.659 21.9669ZM21.4389 23.9733C21.3912 23.9733 21.3273 23.9733 21.2787 23.9733C20.1411 23.9733 19.1961 23.0615 19.116 21.905C19.0359 20.7 19.9332 19.6254 21.1347 19.5435C21.1836 19.5402 21.2323 19.5386 21.2806 19.5386C22.4194 19.5386 23.3808 20.4395 23.4585 21.5955C23.49 22.1985 23.3136 22.7682 22.9293 23.2083C22.545 23.6646 22.0158 23.9247 21.4389 23.9733ZM7.659 23.9669C6.45477 23.9669 5.47919 22.9779 5.47919 21.7566C5.47919 20.5361 6.45477 19.5471 7.659 19.5471C8.86316 19.5471 9.83881 20.5361 9.83881 21.7566C9.83881 22.9779 8.86316 23.9669 7.659 23.9669ZM20.6379 17.1008L8.57251 17.1008C8.13959 17.1008 7.75531 16.8075 7.64276 16.3845L3.71698 1.95471L0.961182 1.95471C0.432861 1.95471 0 1.51562 0 0.977417C0 0.440063 0.432861 0 0.961182 0L4.43878 0C4.87079 0 5.25507 0.293335 5.36755 0.717285L9.2934 15.1461L19.9971 15.1461L23.5539 6.84082L11.6973 6.84082C11.1681 6.84082 10.7352 6.40076 10.7352 5.86353C10.7352 5.32617 11.1681 4.88611 11.6973 4.88611L25.0281 4.88611C25.3485 4.88611 25.6536 5.04895 25.8291 5.32617C26.0055 5.60242 26.0379 5.94446 25.9092 6.25403L21.519 16.514C21.3588 16.8723 21.0222 17.1008 20.6379 17.1008Z" fill="rgb(255,255,255)" fill-rule="nonzero" />
</svg>
