<svg viewBox="0 0 31.4512 32" xmlns="http://www.w3.org/2000/svg" xmlns:xlink="http://www.w3.org/1999/xlink" width="31.451172" height="32.000000" fill="none" customFrame="#000000">
	<defs>
		<clipPath id="clipPath_0">
			<rect width="11.919281" height="16.000000" x="9.933594" y="8.000000" fill="rgb(255,255,255)" />
		</clipPath>
	</defs>
	<g id="6">
		<path id="Rectangle 14" d="M31.4506 0L0 0L0 32L31.4506 32L31.4506 0Z" fill="rgb(255,255,255)" fill-rule="evenodd" />
		<g id="pinterest-p-brands 1" clip-path="url(#clipPath_0)" customFrame="url(#clipPath_0)">
			<rect id="pinterest-p-brands 1" width="11.919281" height="16.000000" x="9.933594" y="8.000000" fill="rgb(255,255,255)" fill-opacity="0" />
			<path id="Vector" d="M16.2657 8.20312C13.081 8.20312 9.93359 10.3406 9.93359 13.8C9.93359 16 11.1628 17.25 11.9077 17.25C12.215 17.25 12.3919 16.3875 12.3919 16.1437C12.3919 15.8531 11.6563 15.2344 11.6563 14.025C11.6563 11.5125 13.5559 9.73125 16.0143 9.73125C18.1281 9.73125 19.6925 10.9406 19.6925 13.1625C19.6925 14.8219 19.0314 17.9344 16.8896 17.9344C16.1167 17.9344 15.4556 17.3719 15.4556 16.5656C15.4556 15.3844 16.275 14.2406 16.275 13.0219C16.275 10.9531 13.3604 11.3281 13.3604 13.8281C13.3604 14.3531 13.4256 14.9344 13.6584 15.4125C13.23 17.2687 12.3547 20.0344 12.3547 21.9469C12.3547 22.5375 12.4385 23.1188 12.4944 23.7094C12.5999 23.8281 12.5471 23.8156 12.7086 23.7563C14.273 21.6 14.2171 21.1781 14.9248 18.3563C15.3066 19.0875 16.2936 19.4813 17.0759 19.4813C20.3723 19.4813 21.8529 16.2469 21.8529 13.3313C21.8529 10.2281 19.1897 8.20312 16.2657 8.20312Z" fill="rgb(0,0,0)" fill-rule="nonzero" />
		</g>
	</g>
</svg>
